<svg xmlns="http://www.w3.org/2000/svg" width="512" height="512" viewBox="0 0 512 512" role="img" aria-labelledby="title"><title id="title">BlackAngelSK logo</title><defs><linearGradient id="g"><stop stop-color="#c8ffc8"/><stop offset=".5" stop-color="#00ff66"/><stop offset="1" stop-color="#00a83d"/></linearGradient><filter id="glow" x="-50%" y="-50%" width="200%" height="200%"><feGaussianBlur stdDeviation="6" result="b"/><feMerge><feMergeNode in="b"/><feMergeNode in="SourceGraphic"/></feMerge></filter></defs><rect width="512" height="512" rx="44" fill="#030803"/><g fill="none" stroke="url(#g)" stroke-width="10" stroke-linecap="round" stroke-linejoin="round" filter="url(#glow)"><path d="M248 240c-43-68-101-107-178-130 40 69 65 117 78 178 32-23 65-39 100-48Z"/><path d="M243 260c-58-24-121-34-194-29 61 43 107 81 139 130 15-42 34-75 55-101Z"/><path d="M237 286c-52 16-98 44-142 94 62-15 114-17 161-14"/><path d="M264 240c43-68 101-107 178-130-40 69-65 117-78 178-32-23-65-39-100-48Z"/><path d="M269 260c58-24 121-34 194-29-61 43-107 81-139 130-15-42-34-75-55-101Z"/><path d="M275 286c52 16 98 44 142 94-62-15-114-17-161-14"/></g><circle cx="256" cy="256" r="119" fill="#030803" stroke="#00ff66" stroke-opacity=".4" stroke-width="3"/><circle cx="256" cy="256" r="100" fill="none" stroke="url(#g)" stroke-width="6"/><g fill="none" stroke="#e0ffe0" stroke-width="15" stroke-linecap="square"><path d="M205 316V196h60c34 0 51 15 51 41 0 18-10 32-29 37 21 5 34 20 34 43"/><path d="M205 256h55c22 0 35-11 35-29s-13-31-35-31h-55"/></g></svg>
